Genre:Animation | Adventure | Comedy | Family
Language:English
IMDb:http://www.imdb.com/title/tt1213012/
Source:BluRay x264-DNL
Subtitles:Romana


Format : Matroska
File size : 1.76 GiB
Duration : 1h 27mn
Overall bit rate : 2 864 Kbps


Video
Format settings, CABAC : Yes
Format settings, ReFrames : 4 frames
Codec ID : V_MPEG4/ISO/AVC
Duration : 1h 27mn
Bit rate : 2 423 Kbps
Nominal bit rate : 2 600 Kbps
Width : 1 280 pixels
Height : 720 pixels
Display aspect ratio : 16:9
Frame rate mode : Variable
Frame rate : 23.976 fps
Color space : YUV
Chroma subsampling : 4:2:0
Bit depth : 8 bits
Scan type : Progressive
Bits/(Pixel*Frame) : 0.110
Stream size : 1.49 GiB (85%)
Writing library : x264


Audio
ID : 2
Format : AC-3
Format/Info : Audio Coding 3
Mode extension : CM (complete main)
Codec ID : A_AC3
Duration : 1h 27mn
Bit rate mode : Constant
Bit rate : 384 Kbps
Channel(s) : 6 channels
Channel positions : Front: L C R, Side: L R, LFE
Sampling rate : 48.0 KHz
Bit depth : 16 bits
Video delay : -1mn 5s
Stream size : 242 MiB (13%)
Language : English


Plot:
Two young wolves at opposite ends of their pack's social order are thrown together into a foreign land and need each other to return home, but love complicates everything







================================== 
http://thepiratebay.org/user/hiest
==================================